<mxfile host="app.diagrams.net" agent="Mozilla/5.0 (Windows NT 10.0; Win64; x64) AppleWebKit/537.36 (KHTML, like Gecko) Chrome/137.0.0.0 Safari/537.36 Edg/137.0.0.0" version="27.1.4">
  <diagram name="Pagina-1" id="SdLKrbviTd8k4UHbPVwk">
    <mxGraphModel dx="1034" dy="570" grid="0" gridSize="10" guides="1" tooltips="1" connect="1" arrows="1" fold="1" page="0" pageScale="1" pageWidth="827" pageHeight="1169" math="0" shadow="0">
      <root>
        <mxCell id="0" />
        <mxCell id="1" parent="0" />
        <mxCell id="L79wH-7DN6uQjq48-_hh-29" value="" style="rounded=1;whiteSpace=wrap;html=1;fillColor=none;strokeColor=#82b366;dashed=1;strokeWidth=2;" vertex="1" parent="1">
          <mxGeometry x="170" y="220" width="650" height="160" as="geometry" />
        </mxCell>
        <mxCell id="L79wH-7DN6uQjq48-_hh-8" value="" style="rounded=1;whiteSpace=wrap;html=1;fillColor=none;dashed=1;strokeWidth=2;strokeColor=#b85450;" vertex="1" parent="1">
          <mxGeometry x="170" y="105" width="360" height="70" as="geometry" />
        </mxCell>
        <mxCell id="L79wH-7DN6uQjq48-_hh-6" value="" style="edgeStyle=orthogonalEdgeStyle;rounded=0;orthogonalLoop=1;jettySize=auto;html=1;" edge="1" parent="1" source="L79wH-7DN6uQjq48-_hh-1" target="L79wH-7DN6uQjq48-_hh-4">
          <mxGeometry relative="1" as="geometry" />
        </mxCell>
        <mxCell id="L79wH-7DN6uQjq48-_hh-1" value="&lt;font style=&quot;font-size: 14px;&quot; face=&quot;Verdana&quot;&gt;&lt;b style=&quot;&quot;&gt;Features Extraction&lt;/b&gt;&lt;/font&gt;" style="rounded=0;whiteSpace=wrap;html=1;" vertex="1" parent="1">
          <mxGeometry x="190" y="120" width="130" height="40" as="geometry" />
        </mxCell>
        <mxCell id="L79wH-7DN6uQjq48-_hh-3" value="" style="edgeStyle=orthogonalEdgeStyle;rounded=0;orthogonalLoop=1;jettySize=auto;html=1;" edge="1" parent="1" source="L79wH-7DN6uQjq48-_hh-2" target="L79wH-7DN6uQjq48-_hh-1">
          <mxGeometry relative="1" as="geometry" />
        </mxCell>
        <mxCell id="L79wH-7DN6uQjq48-_hh-2" value="&lt;b&gt;&lt;font style=&quot;font-size: 14px;&quot; face=&quot;Verdana&quot;&gt;Authorized Speakers&lt;/font&gt;&lt;/b&gt;" style="text;html=1;align=center;verticalAlign=middle;whiteSpace=wrap;rounded=0;" vertex="1" parent="1">
          <mxGeometry x="20" y="115" width="120" height="50" as="geometry" />
        </mxCell>
        <mxCell id="L79wH-7DN6uQjq48-_hh-10" style="edgeStyle=orthogonalEdgeStyle;rounded=0;orthogonalLoop=1;jettySize=auto;html=1;exitX=0.5;exitY=1;exitDx=0;exitDy=0;entryX=0.5;entryY=0;entryDx=0;entryDy=0;" edge="1" parent="1" source="L79wH-7DN6uQjq48-_hh-4">
          <mxGeometry relative="1" as="geometry">
            <mxPoint x="445" y="240" as="targetPoint" />
          </mxGeometry>
        </mxCell>
        <mxCell id="L79wH-7DN6uQjq48-_hh-4" value="&lt;font style=&quot;font-size: 14px;&quot; face=&quot;Verdana&quot;&gt;&lt;b style=&quot;&quot;&gt;Speaker Models&lt;/b&gt;&lt;/font&gt;" style="rounded=0;whiteSpace=wrap;html=1;" vertex="1" parent="1">
          <mxGeometry x="380" y="120" width="130" height="40" as="geometry" />
        </mxCell>
        <mxCell id="L79wH-7DN6uQjq48-_hh-9" value="&lt;b&gt;&lt;font face=&quot;Verdana&quot; style=&quot;font-size: 14px;&quot;&gt;Speaker Identification Task&lt;/font&gt;&lt;/b&gt;" style="text;html=1;align=center;verticalAlign=middle;whiteSpace=wrap;rounded=0;fontColor=#CC0000;" vertex="1" parent="1">
          <mxGeometry x="235" y="75" width="230" height="30" as="geometry" />
        </mxCell>
        <mxCell id="L79wH-7DN6uQjq48-_hh-26" value="" style="edgeStyle=orthogonalEdgeStyle;rounded=0;orthogonalLoop=1;jettySize=auto;html=1;" edge="1" parent="1" source="L79wH-7DN6uQjq48-_hh-12" target="L79wH-7DN6uQjq48-_hh-25">
          <mxGeometry relative="1" as="geometry" />
        </mxCell>
        <mxCell id="L79wH-7DN6uQjq48-_hh-12" value="&lt;font style=&quot;font-size: 14px;&quot; face=&quot;Verdana&quot;&gt;&lt;b style=&quot;&quot;&gt;GMM-UBM&lt;/b&gt;&lt;/font&gt;&lt;div&gt;&lt;font style=&quot;font-size: 14px;&quot; face=&quot;Verdana&quot;&gt;&lt;b style=&quot;&quot;&gt;(Background Model)&lt;/b&gt;&lt;/font&gt;&lt;/div&gt;" style="rounded=0;whiteSpace=wrap;html=1;" vertex="1" parent="1">
          <mxGeometry x="620" y="240" width="170" height="40" as="geometry" />
        </mxCell>
        <mxCell id="L79wH-7DN6uQjq48-_hh-18" value="" style="edgeStyle=orthogonalEdgeStyle;rounded=0;orthogonalLoop=1;jettySize=auto;html=1;" edge="1" parent="1" source="L79wH-7DN6uQjq48-_hh-13" target="L79wH-7DN6uQjq48-_hh-12">
          <mxGeometry relative="1" as="geometry" />
        </mxCell>
        <mxCell id="L79wH-7DN6uQjq48-_hh-13" value="&lt;font style=&quot;font-size: 14px;&quot; face=&quot;Verdana&quot;&gt;&lt;b style=&quot;&quot;&gt;Embedding Extraction&lt;/b&gt;&lt;/font&gt;" style="rounded=0;whiteSpace=wrap;html=1;" vertex="1" parent="1">
          <mxGeometry x="380" y="240" width="130" height="40" as="geometry" />
        </mxCell>
        <mxCell id="L79wH-7DN6uQjq48-_hh-16" value="" style="edgeStyle=orthogonalEdgeStyle;rounded=0;orthogonalLoop=1;jettySize=auto;html=1;" edge="1" parent="1" source="L79wH-7DN6uQjq48-_hh-14" target="L79wH-7DN6uQjq48-_hh-15">
          <mxGeometry relative="1" as="geometry" />
        </mxCell>
        <mxCell id="L79wH-7DN6uQjq48-_hh-14" value="&lt;b&gt;&lt;font style=&quot;font-size: 14px;&quot; face=&quot;Verdana&quot;&gt;Authorized Speakers&lt;/font&gt;&lt;/b&gt;" style="text;html=1;align=center;verticalAlign=middle;whiteSpace=wrap;rounded=0;" vertex="1" parent="1">
          <mxGeometry x="20" y="235" width="120" height="50" as="geometry" />
        </mxCell>
        <mxCell id="L79wH-7DN6uQjq48-_hh-17" style="edgeStyle=orthogonalEdgeStyle;rounded=0;orthogonalLoop=1;jettySize=auto;html=1;exitX=1;exitY=0.5;exitDx=0;exitDy=0;entryX=0;entryY=0.5;entryDx=0;entryDy=0;" edge="1" parent="1" source="L79wH-7DN6uQjq48-_hh-15" target="L79wH-7DN6uQjq48-_hh-13">
          <mxGeometry relative="1" as="geometry" />
        </mxCell>
        <mxCell id="L79wH-7DN6uQjq48-_hh-15" value="&lt;font style=&quot;font-size: 14px;&quot; face=&quot;Verdana&quot;&gt;&lt;b style=&quot;&quot;&gt;Features Extraction&lt;/b&gt;&lt;/font&gt;" style="rounded=0;whiteSpace=wrap;html=1;" vertex="1" parent="1">
          <mxGeometry x="190" y="240" width="130" height="40" as="geometry" />
        </mxCell>
        <mxCell id="L79wH-7DN6uQjq48-_hh-28" value="" style="edgeStyle=orthogonalEdgeStyle;rounded=0;orthogonalLoop=1;jettySize=auto;html=1;" edge="1" parent="1" source="L79wH-7DN6uQjq48-_hh-19" target="L79wH-7DN6uQjq48-_hh-20">
          <mxGeometry relative="1" as="geometry" />
        </mxCell>
        <mxCell id="L79wH-7DN6uQjq48-_hh-19" value="&lt;b&gt;&lt;font style=&quot;font-size: 14px;&quot; face=&quot;Verdana&quot;&gt;Unauthorized Speakers&lt;/font&gt;&lt;/b&gt;" style="text;html=1;align=center;verticalAlign=middle;whiteSpace=wrap;rounded=0;" vertex="1" parent="1">
          <mxGeometry x="20" y="305" width="120" height="50" as="geometry" />
        </mxCell>
        <mxCell id="L79wH-7DN6uQjq48-_hh-23" style="edgeStyle=orthogonalEdgeStyle;rounded=0;orthogonalLoop=1;jettySize=auto;html=1;exitX=1;exitY=0.5;exitDx=0;exitDy=0;entryX=0;entryY=0.5;entryDx=0;entryDy=0;" edge="1" parent="1" source="L79wH-7DN6uQjq48-_hh-20" target="L79wH-7DN6uQjq48-_hh-22">
          <mxGeometry relative="1" as="geometry" />
        </mxCell>
        <mxCell id="L79wH-7DN6uQjq48-_hh-20" value="&lt;font style=&quot;font-size: 14px;&quot; face=&quot;Verdana&quot;&gt;&lt;b style=&quot;&quot;&gt;Features Extraction&lt;/b&gt;&lt;/font&gt;" style="rounded=0;whiteSpace=wrap;html=1;" vertex="1" parent="1">
          <mxGeometry x="190" y="310" width="130" height="40" as="geometry" />
        </mxCell>
        <mxCell id="L79wH-7DN6uQjq48-_hh-27" value="" style="edgeStyle=orthogonalEdgeStyle;rounded=0;orthogonalLoop=1;jettySize=auto;html=1;" edge="1" parent="1" source="L79wH-7DN6uQjq48-_hh-22" target="L79wH-7DN6uQjq48-_hh-25">
          <mxGeometry relative="1" as="geometry" />
        </mxCell>
        <mxCell id="L79wH-7DN6uQjq48-_hh-22" value="&lt;font style=&quot;font-size: 14px;&quot; face=&quot;Verdana&quot;&gt;&lt;b style=&quot;&quot;&gt;Embedding Extraction&lt;/b&gt;&lt;/font&gt;" style="rounded=0;whiteSpace=wrap;html=1;" vertex="1" parent="1">
          <mxGeometry x="380" y="310" width="130" height="40" as="geometry" />
        </mxCell>
        <mxCell id="L79wH-7DN6uQjq48-_hh-24" value="&lt;font style=&quot;font-size: 14px;&quot; face=&quot;Verdana&quot;&gt;&lt;i&gt;Enrolment&lt;/i&gt;&lt;/font&gt;" style="text;html=1;align=center;verticalAlign=middle;whiteSpace=wrap;rounded=0;" vertex="1" parent="1">
          <mxGeometry x="540" y="235" width="60" height="30" as="geometry" />
        </mxCell>
        <mxCell id="L79wH-7DN6uQjq48-_hh-25" value="&lt;font face=&quot;Verdana&quot;&gt;&lt;span style=&quot;font-size: 14px;&quot;&gt;&lt;b&gt;Scoring Rejection/Aceptance&lt;/b&gt;&lt;/span&gt;&lt;/font&gt;" style="rounded=0;whiteSpace=wrap;html=1;" vertex="1" parent="1">
          <mxGeometry x="620" y="310" width="170" height="40" as="geometry" />
        </mxCell>
        <mxCell id="L79wH-7DN6uQjq48-_hh-30" value="&lt;font style=&quot;font-size: 14px;&quot; face=&quot;Verdana&quot;&gt;&lt;i&gt;Testing&lt;/i&gt;&lt;/font&gt;" style="text;html=1;align=center;verticalAlign=middle;whiteSpace=wrap;rounded=0;" vertex="1" parent="1">
          <mxGeometry x="541" y="304" width="60" height="30" as="geometry" />
        </mxCell>
        <mxCell id="L79wH-7DN6uQjq48-_hh-32" value="&lt;b&gt;&lt;font face=&quot;Verdana&quot; style=&quot;font-size: 14px; color: rgb(0, 153, 0);&quot;&gt;Speaker Verification Task&lt;/font&gt;&lt;/b&gt;" style="text;html=1;align=center;verticalAlign=middle;whiteSpace=wrap;rounded=0;fontColor=#CC0000;" vertex="1" parent="1">
          <mxGeometry x="592" y="189" width="230" height="30" as="geometry" />
        </mxCell>
      </root>
    </mxGraphModel>
  </diagram>
</mxfile>
